<svg xmlns="http://www.w3.org/2000/svg" viewBox="0 0 399 733" role="img" aria-label="Volpe logo"><path d="M 190,8 166,21 155,29 137,45 119,65 93,103 76,149 55,172 37,196 22,223 9,259 4,286 4,318 9,345 16,365 30,391 42,407 65,430 98,453 168,484 190,497 209,514 222,534 229,560 227,588 224,598 216,613 210,621 193,637 172,648 146,654 110,653 98,651 73,643 54,635 33,623 32,627 48,652 70,676 87,690 112,706 138,718 164,726 190,730 219,730 253,724 282,713 304,700 330,677 346,657 361,627 369,596 371,564 372,563 389,584 392,567 392,553 387,520 377,492 365,471 346,448 325,430 308,419 280,404 237,386 216,373 200,357 192,340 192,325 194,319 202,309 209,305 220,303 250,304 312,317 337,317 351,313 364,306 377,294 380,289 380,285 340,258 319,237 310,219 305,197 295,170 282,150 267,133 267,105 274,79 291,46 290,44 276,47 249,59 235,69 214,91 195,9 Z" fill="#090909"/></svg>